<svg xmlns="http://www.w3.org/2000/svg" xmlns:xlink="http://www.w3.org/1999/xlink" width="500" zoomAndPan="magnify" viewBox="0 0 375 374.999991" height="500" preserveAspectRatio="xMidYMid meet" version="1.0"><defs><g/><clipPath id="56e2c09222"><path d="M 37.5 142.097656 L 109 142.097656 L 109 232.847656 L 37.5 232.847656 Z M 37.5 142.097656 " clip-rule="nonzero"/></clipPath><clipPath id="8b7fc4f003"><path d="M 59 163 L 122.25 163 L 122.25 196 L 59 196 Z M 59 163 " clip-rule="nonzero"/></clipPath></defs><g clip-path="url(#56e2c09222)"><path fill="#fedc00" d="M 100.65625 190.957031 L 100.367188 190.65625 L 100.121094 190.320312 C 100.027344 190.191406 99.933594 190.078125 99.839844 189.988281 L 99.8125 189.957031 C 99.503906 189.632812 98.898438 189.136719 97.996094 188.953125 C 96.785156 191.980469 94.957031 194.816406 92.511719 197.269531 C 82.8125 207 67.089844 207 57.390625 197.269531 C 47.691406 187.542969 47.691406 171.769531 57.390625 162.042969 C 67.089844 152.316406 82.8125 152.316406 92.511719 162.042969 C 94.957031 164.5 96.789062 167.34375 98 170.375 C 98.941406 170.167969 99.558594 169.617188 99.863281 169.253906 L 99.960938 169.144531 L 99.984375 169.109375 L 100.070312 169.007812 C 102.378906 166.3125 105.472656 164.476562 108.867188 163.722656 C 107.070312 159.875 104.59375 156.273438 101.425781 153.097656 C 86.804688 138.429688 63.09375 138.429688 48.46875 153.097656 C 33.84375 167.765625 33.84375 191.546875 48.46875 206.21875 L 74.945312 232.777344 L 101.425781 206.21875 C 104.59375 203.039062 107.070312 199.433594 108.867188 195.589844 C 105.765625 194.890625 102.882812 193.289062 100.65625 190.957031 Z M 100.65625 190.957031 " fill-opacity="1" fill-rule="nonzero"/></g><g clip-path="url(#8b7fc4f003)"><path fill="#663399" d="M 122.238281 179.660156 C 122.238281 185.109375 117.832031 189.53125 112.398438 189.53125 C 109.613281 189.53125 107.089844 188.363281 105.300781 186.488281 C 105.042969 186.136719 104.765625 185.800781 104.460938 185.488281 C 102.652344 183.597656 100.113281 182.421875 97.292969 182.421875 C 93.765625 182.421875 90.664062 184.261719 88.898438 187.039062 C 88.71875 187.320312 88.554688 187.609375 88.40625 187.910156 C 85.632812 192.449219 80.644531 195.476562 74.949219 195.476562 C 66.242188 195.476562 59.183594 188.394531 59.183594 179.660156 C 59.183594 170.925781 66.242188 163.84375 74.949219 163.84375 C 80.554688 163.84375 85.476562 166.777344 88.269531 171.195312 C 88.492188 171.667969 88.746094 172.121094 89.035156 172.542969 C 90.8125 175.1875 93.828125 176.921875 97.242188 176.921875 C 100.25 176.921875 102.945312 175.578125 104.757812 173.453125 C 104.828125 173.378906 104.894531 173.296875 104.957031 173.214844 C 106.753906 171.117188 109.421875 169.792969 112.398438 169.792969 C 117.832031 169.792969 122.238281 174.214844 122.238281 179.660156 Z M 122.238281 179.660156 " fill-opacity="1" fill-rule="nonzero"/></g><g fill="#000000" fill-opacity="1"><g transform="translate(87.018814, 203.838992)"><g/></g></g><g fill="#000000" fill-opacity="1"><g transform="translate(105.187637, 203.838992)"><g/></g></g><g fill="#000000" fill-opacity="1"><g transform="translate(123.358656, 203.838992)"><g><path d="M 11.625 16.640625 C 9.9375 16.640625 8.492188 16.492188 7.296875 16.203125 C 6.109375 15.921875 5.179688 15.628906 4.515625 15.328125 L 7.171875 6.15625 C 9.273438 6.78125 11.046875 6.941406 12.484375 6.640625 C 13.921875 6.347656 15.054688 5.226562 15.890625 3.28125 L 16.671875 1.21875 L 1.328125 -42.734375 L 13.796875 -42.734375 L 22.65625 -11.359375 L 23.09375 -11.359375 L 32.03125 -42.734375 L 44.578125 -42.734375 L 27.875 4.890625 C 26.675781 8.304688 24.753906 11.117188 22.109375 13.328125 C 19.460938 15.535156 15.96875 16.640625 11.625 16.640625 Z M 11.625 16.640625 "/></g></g></g><g fill="#000000" fill-opacity="1"><g transform="translate(169.267634, 203.838992)"><g><path d="M 32.140625 -18.203125 L 32.140625 -42.734375 L 44 -42.734375 L 44 0 L 32.609375 0 L 32.609375 -7.765625 L 32.171875 -7.765625 C 31.203125 -5.253906 29.597656 -3.238281 27.359375 -1.71875 C 25.128906 -0.195312 22.410156 0.5625 19.203125 0.5625 C 14.898438 0.5625 11.414062 -0.867188 8.75 -3.734375 C 6.09375 -6.609375 4.753906 -10.539062 4.734375 -15.53125 L 4.734375 -42.734375 L 16.578125 -42.734375 L 16.578125 -17.640625 C 16.597656 -15.117188 17.273438 -13.125 18.609375 -11.65625 C 19.953125 -10.195312 21.742188 -9.46875 23.984375 -9.46875 C 26.117188 -9.46875 28.015625 -10.207031 29.671875 -11.6875 C 31.335938 -13.164062 32.160156 -15.335938 32.140625 -18.203125 Z M 32.140625 -18.203125 "/></g></g></g><g fill="#000000" fill-opacity="1"><g transform="translate(217.9868, 203.838992)"><g><path d="M 4.515625 0 L 4.515625 -7.0625 L 25.4375 -32.96875 L 25.4375 -33.28125 L 5.234375 -33.28125 L 5.234375 -42.734375 L 39.703125 -42.734375 L 39.703125 -35.03125 L 20.0625 -9.765625 L 20.0625 -9.46875 L 40.4375 -9.46875 L 40.4375 0 Z M 4.515625 0 "/></g></g></g><g fill="#000000" fill-opacity="1"><g transform="translate(262.782841, 203.838992)"><g><path d="M 32.140625 -18.203125 L 32.140625 -42.734375 L 44 -42.734375 L 44 0 L 32.609375 0 L 32.609375 -7.765625 L 32.171875 -7.765625 C 31.203125 -5.253906 29.597656 -3.238281 27.359375 -1.71875 C 25.128906 -0.195312 22.410156 0.5625 19.203125 0.5625 C 14.898438 0.5625 11.414062 -0.867188 8.75 -3.734375 C 6.09375 -6.609375 4.753906 -10.539062 4.734375 -15.53125 L 4.734375 -42.734375 L 16.578125 -42.734375 L 16.578125 -17.640625 C 16.597656 -15.117188 17.273438 -13.125 18.609375 -11.65625 C 19.953125 -10.195312 21.742188 -9.46875 23.984375 -9.46875 C 26.117188 -9.46875 28.015625 -10.207031 29.671875 -11.6875 C 31.335938 -13.164062 32.160156 -15.335938 32.140625 -18.203125 Z M 32.140625 -18.203125 "/></g></g></g></svg>