<svg xmlns="http://www.w3.org/2000/svg" xmlns:xlink="http://www.w3.org/1999/xlink" width="500" zoomAndPan="magnify" viewBox="0 0 375 374.999991" height="500" preserveAspectRatio="xMidYMid meet" version="1.0"><defs><g/></defs><g fill="#000000" fill-opacity="1"><g transform="translate(93.427733, 203.562349)"><g><path d="M 11.625 16.640625 C 9.9375 16.640625 8.492188 16.492188 7.296875 16.203125 C 6.109375 15.921875 5.179688 15.628906 4.515625 15.328125 L 7.171875 6.15625 C 9.273438 6.78125 11.046875 6.941406 12.484375 6.640625 C 13.921875 6.347656 15.054688 5.226562 15.890625 3.28125 L 16.671875 1.21875 L 1.328125 -42.734375 L 13.796875 -42.734375 L 22.65625 -11.359375 L 23.09375 -11.359375 L 32.03125 -42.734375 L 44.578125 -42.734375 L 27.875 4.890625 C 26.675781 8.304688 24.753906 11.117188 22.109375 13.328125 C 19.460938 15.535156 15.96875 16.640625 11.625 16.640625 Z M 11.625 16.640625 "/></g></g></g><g fill="#000000" fill-opacity="1"><g transform="translate(139.336711, 203.562349)"><g><path d="M 32.140625 -18.203125 L 32.140625 -42.734375 L 44 -42.734375 L 44 0 L 32.609375 0 L 32.609375 -7.765625 L 32.171875 -7.765625 C 31.203125 -5.253906 29.597656 -3.238281 27.359375 -1.71875 C 25.128906 -0.195312 22.410156 0.5625 19.203125 0.5625 C 14.898438 0.5625 11.414062 -0.867188 8.75 -3.734375 C 6.09375 -6.609375 4.753906 -10.539062 4.734375 -15.53125 L 4.734375 -42.734375 L 16.578125 -42.734375 L 16.578125 -17.640625 C 16.597656 -15.117188 17.273438 -13.125 18.609375 -11.65625 C 19.953125 -10.195312 21.742188 -9.46875 23.984375 -9.46875 C 26.117188 -9.46875 28.015625 -10.207031 29.671875 -11.6875 C 31.335938 -13.164062 32.160156 -15.335938 32.140625 -18.203125 Z M 32.140625 -18.203125 "/></g></g></g><g fill="#000000" fill-opacity="1"><g transform="translate(188.055878, 203.562349)"><g><path d="M 4.515625 0 L 4.515625 -7.0625 L 25.4375 -32.96875 L 25.4375 -33.28125 L 5.234375 -33.28125 L 5.234375 -42.734375 L 39.703125 -42.734375 L 39.703125 -35.03125 L 20.0625 -9.765625 L 20.0625 -9.46875 L 40.4375 -9.46875 L 40.4375 0 Z M 4.515625 0 "/></g></g></g><g fill="#000000" fill-opacity="1"><g transform="translate(232.851918, 203.562349)"><g><path d="M 32.140625 -18.203125 L 32.140625 -42.734375 L 44 -42.734375 L 44 0 L 32.609375 0 L 32.609375 -7.765625 L 32.171875 -7.765625 C 31.203125 -5.253906 29.597656 -3.238281 27.359375 -1.71875 C 25.128906 -0.195312 22.410156 0.5625 19.203125 0.5625 C 14.898438 0.5625 11.414062 -0.867188 8.75 -3.734375 C 6.09375 -6.609375 4.753906 -10.539062 4.734375 -15.53125 L 4.734375 -42.734375 L 16.578125 -42.734375 L 16.578125 -17.640625 C 16.597656 -15.117188 17.273438 -13.125 18.609375 -11.65625 C 19.953125 -10.195312 21.742188 -9.46875 23.984375 -9.46875 C 26.117188 -9.46875 28.015625 -10.207031 29.671875 -11.6875 C 31.335938 -13.164062 32.160156 -15.335938 32.140625 -18.203125 Z M 32.140625 -18.203125 "/></g></g></g></svg>